<svg width="139" height="120" viewBox="0 0 139 120" fill="none" xmlns="http://www.w3.org/2000/svg">
<path d="M66.4969 117.859C63.4142 117.612 61.1946 115.701 60.578 112.803C60.2698 111.447 60.0848 111.138 55.4607 110.275C48.9869 109.104 31.2302 101.89 19.639 90.7306C1.759 73.5288 -5.20804 35.5492 12.1171 15.6346C18.4059 8.42093 30.1204 1.02231 43.9311 2.00879C54.4742 2.87197 62.1194 7.92767 66.7436 12.0586C67.2368 12.4902 67.7917 12.7368 68.4699 12.7984C69.2714 12.8601 70.1346 12.5518 70.6895 11.9969C72.7858 10.0856 75.0053 8.42093 77.4099 7.06452C84.0687 3.30355 92.3305 1.63887 100.716 2.25542C110.58 3.05694 119.397 6.94121 125.563 13.3533C129.385 17.2993 131.112 21.1836 132.16 23.4648C142.888 47.0787 128.707 72.6656 125.809 77.5364C125.439 78.1529 116.746 92.3336 100.099 103.185C98.1261 104.48 96.0914 105.651 96.0914 105.651C94.6117 106.453 92.947 107.377 88.5078 109.535C82.5273 112.495 76.1151 115.516 69.4564 117.489C68.4699 117.859 67.4834 117.982 66.4969 117.859Z" fill="#ED1C24"/>
<path d="M100.53 4.41196C109.285 5.09017 117.917 8.54286 124.083 14.8933C127.597 18.531 129.262 22.107 130.31 24.4499C140.914 47.8172 125.871 73.6507 124.021 76.6718C124.021 76.6718 115.389 90.9758 98.9273 101.642C97.016 102.875 94.9814 104.047 94.9814 104.047C93.5016 104.848 91.7753 105.773 87.5211 107.869C81.1089 111.014 75.0667 113.85 68.7779 115.7C68.1614 115.885 67.4215 115.946 66.62 115.885C64.8936 115.761 63.044 114.836 62.5507 112.432C61.9342 109.596 60.2078 109.164 55.8303 108.363C50.0964 107.314 32.7096 100.594 20.9952 89.3111C4.03999 72.9725 -3.29698 36.411 13.5965 16.9896C19.3305 10.3925 30.2434 3.11721 43.7459 4.10369C43.8076 4.10369 43.8692 4.10369 43.9309 4.10369C53.919 4.90521 61.256 9.96091 65.3252 13.5986C66.1267 14.3384 67.1749 14.77 68.223 14.8317C69.5794 14.955 70.9358 14.5234 71.984 13.5369C73.7103 11.9339 75.8066 10.3309 78.3345 8.91279C84.8083 5.33678 92.7001 3.79541 100.53 4.41196ZM100.839 0.404364C92.0836 -0.273843 83.4518 1.51416 76.4232 5.46009C73.8953 6.87816 71.4908 8.6045 69.3328 10.6391C69.0862 10.8857 68.7779 10.8857 68.6546 10.8857C68.5313 10.8857 68.2847 10.8241 68.0997 10.6391C63.2906 6.32326 55.2138 0.959266 44.3008 0.0960931H44.0542C29.5036 -0.952045 17.2342 6.75485 10.5754 14.4001C1.9437 24.2649 -1.57065 38.6306 0.648937 54.9075C2.6219 69.6431 9.21902 83.5772 18.2207 92.2706C30.3051 103.923 48.1851 111.075 55.0905 112.37C56.077 112.555 57.9266 112.863 58.6048 113.172C58.6048 113.233 58.6048 113.233 58.6665 113.295C59.468 117.118 62.4274 119.645 66.3734 119.954C67.6065 120.077 68.8396 119.954 69.9494 119.584C76.7314 117.611 83.2669 114.528 89.3091 111.507C93.6866 109.349 95.4129 108.486 96.8927 107.623C97.7558 107.191 98.989 106.451 101.147 105.033C118.225 93.9353 127.104 79.323 127.474 78.7064C130.495 73.6507 145.107 47.2623 133.947 22.7852C132.838 20.319 130.988 16.2497 126.919 12.0572C120.445 5.33677 111.135 1.20588 100.839 0.404364Z" fill="white"/>
<path d="M66.4348 79.0144C71.9221 79.0144 76.4846 76.9798 80.1839 72.9106C83.8216 68.9646 85.6096 64.2172 85.6096 58.6066C85.6096 53.0576 83.8216 48.3101 80.1223 44.4258C76.423 40.4183 71.8605 38.4453 66.4348 38.4453C60.9475 38.4453 56.385 40.4183 52.624 44.4258C48.9864 48.3718 47.1984 53.1192 47.1984 58.6682C47.1984 64.2172 48.9864 68.9646 52.624 72.9106C56.3234 76.9798 60.9475 79.0144 66.4348 79.0144ZM58.543 50.2831C60.6392 47.8785 63.2287 46.7071 66.4348 46.7071C69.5792 46.7071 72.2304 47.9402 74.265 50.3448C76.238 52.626 77.2245 55.4005 77.2245 58.6682C77.2245 61.8743 76.238 64.6488 74.265 66.9917C72.1688 69.4579 69.5792 70.691 66.4348 70.691C63.3521 70.691 60.7009 69.4579 58.6046 66.9917C56.57 64.6488 55.5835 61.8743 55.5835 58.6682C55.5835 55.4005 56.57 52.626 58.543 50.2831ZM91.3435 83.207C92.33 84.995 91.7134 87.2762 89.9871 88.2627C81.1087 93.3801 72.9086 95.1064 65.9416 95.1064C52.1925 95.1064 43.0675 88.4477 42.5126 88.0777C40.9096 86.8446 40.5396 84.5017 41.7111 82.8987C42.9442 81.234 45.2254 80.9257 46.8285 82.0972C47.5683 82.6521 64.2769 94.5515 86.3494 81.8506C88.0758 80.8024 90.357 81.419 91.3435 83.207Z" fill="white"/>
<path d="M41.1577 78.1532C41.1577 78.7081 40.9727 78.9547 40.6028 78.9547H33.944C33.5125 78.9547 33.3275 78.7081 33.3275 78.1532C33.3275 75.3787 33.3275 71.2478 33.3891 65.6989C33.4508 60.1499 33.4508 55.9574 33.4508 53.1829C33.4508 50.655 33.3275 46.8324 33.0809 41.7767C32.8343 36.7209 32.7109 32.8983 32.7109 30.4321C32.7109 29.9389 32.9576 29.7539 33.4508 29.7539C33.8824 29.7539 34.499 29.8156 35.3005 29.8772C36.1636 29.9389 36.7802 30.0005 37.1501 30.0005C37.5817 30.0005 38.2599 29.9389 39.1231 29.8772C39.9863 29.8156 40.6028 29.7539 41.0344 29.7539C41.466 29.7539 41.6509 29.9389 41.6509 30.3088L41.5893 30.7404C41.0961 39.4338 40.8494 46.9557 40.8494 53.1829C40.8494 55.9574 40.9111 60.1499 40.9727 65.6989C41.096 71.2478 41.1577 75.3787 41.1577 78.1532Z" fill="white"/>
<path d="M103.612 36.1649C102.503 37.398 101.886 40.5424 101.886 45.5982C102.626 45.5982 103.859 45.5982 105.524 45.6598C107.188 45.7215 108.421 45.7215 109.223 45.7215C109.778 45.7215 110.086 45.9064 110.086 46.338C110.086 47.0162 110.086 48.0027 110.148 49.2975C110.209 50.5922 110.21 51.5787 110.21 52.1953C110.21 52.6269 109.963 52.8735 109.531 52.8735C108.73 52.8735 107.497 52.8118 105.832 52.7502C104.229 52.6885 102.996 52.6269 102.194 52.6269V63.1082C102.194 64.7729 102.256 67.2391 102.379 70.5685C102.503 73.8979 102.564 76.3641 102.564 78.0288C102.564 78.6453 102.318 78.9536 101.886 78.9536H95.5355C94.919 78.9536 94.6107 78.5837 94.6107 77.8438V53.675C94.6107 53.0584 93.8709 52.7502 92.5145 52.7502C90.9731 52.7502 90.1716 52.6885 90.1099 52.5652C90.0483 52.5036 89.9866 52.072 89.9866 51.2704C89.9866 50.7772 89.9866 49.9757 89.9249 48.9892C89.8633 47.9411 89.8633 47.2012 89.8633 46.708C89.8633 46.2147 91.343 45.9065 94.3025 45.7215C94.2408 44.2418 94.1791 43.0087 94.1791 42.0838C94.1791 37.9529 94.919 34.9318 96.3371 32.9589C97.6319 31.2325 99.5432 29.8761 102.009 28.8896C104.229 28.0265 106.572 27.5332 108.976 27.5332C109.223 27.5332 109.346 27.6565 109.47 27.9031C109.47 27.9648 109.716 28.9513 110.086 30.8626C110.456 32.7739 110.641 33.822 110.641 33.8837C110.641 34.192 110.456 34.3153 110.025 34.3769C108.915 34.5002 107.743 34.6235 106.633 34.6852C105.339 34.9318 104.352 35.4251 103.612 36.1649Z" fill="white"/>
</svg>
